<svg width="351" height="529" viewBox="0 0 351 529" fill="none"
  xmlns="http://www.w3.org/2000/svg">
  <path fill-rule="evenodd" clip-rule="evenodd" d="M376.819 436.81C340.504 471.675 313.638 535.888 260.989 526.812C208.115 517.698 191.24 435.999 147.765 397.325C102.963 357.468 25.254 356.208 5.24977 299.307C-14.5351 243.029 43.5694 202.74 61.3302 151.464C78.392 102.205 62.2743 25.7466 107.121 5.20172C152.91 -15.7752 205.965 51.1047 258.807 60.9959C308.441 70.2866 357.883 30.5741 402.551 60.5019C447.735 90.7754 467.167 152.98 476.447 206.816C484.982 256.331 469.704 301.779 451.419 343.99C434.731 382.516 405.899 408.892 376.819 436.81Z" stroke="white" stroke-opacity="0.06" stroke-width="2"/>
</svg>
