<svg width="682" height="944" viewBox="0 0 682 944" fill="none"
  xmlns="http://www.w3.org/2000/svg">
  <path fill-rule="evenodd" clip-rule="evenodd" d="M606.952 195.423C594.16 207.704 584.697 230.322 566.153 227.125C547.529 223.915 541.585 195.138 526.271 181.515C510.49 167.476 483.119 167.032 476.072 146.99C469.104 127.167 489.57 112.976 495.826 94.9145C501.836 77.5641 496.158 50.6326 511.955 43.396C528.083 36.0072 546.771 59.5646 565.384 63.0487C582.867 66.3212 600.282 52.3331 616.016 62.8747C631.931 73.538 638.776 95.4485 642.044 114.411C645.051 131.852 639.669 147.861 633.229 162.729C627.35 176.299 617.195 185.589 606.952 195.423Z" fill="white" fill-opacity="0.06"/>
  <path fill-rule="evenodd" clip-rule="evenodd" d="M102.174 848.769C64.8607 814.974 -1.06997 792.653 4.31112 739.5C9.71526 686.119 90.0371 663.585 125.585 617.519C162.219 570.045 158.056 492.438 213.423 468.513C268.183 444.851 312.428 500.003 364.818 514.144C415.146 527.728 490.294 506.316 513.918 549.62C538.038 593.835 475.022 651.426 468.84 704.829C463.035 754.99 506.099 801.542 479.36 848.189C452.313 895.374 391.615 919.098 338.558 932.111C289.759 944.079 243.355 932.008 199.971 916.712C160.375 902.752 132.053 875.831 102.174 848.769Z" stroke="white" stroke-opacity="0.06" stroke-width="2"/>
</svg>
